<svg width="57" height="56" viewBox="0 0 57 56" fill="none" xmlns="http://www.w3.org/2000/svg">
<path d="M17.4611 44.0684L18.1767 44.4882C21.1824 46.2547 24.6287 47.1892 28.1432 47.1908H28.1505C38.9434 47.1908 47.727 38.4943 47.7315 27.8057C47.7334 22.626 45.6986 17.7553 42.0016 14.0913C40.1883 12.2844 38.0311 10.8515 35.6549 9.87575C33.2787 8.89997 30.7306 8.40061 28.1582 8.4066C17.357 8.4066 8.57308 17.1021 8.56924 27.7901C8.56392 31.4398 9.60175 35.0164 11.5628 38.1065L12.0286 38.8396L10.0501 45.9925L17.4611 44.0684ZM4.39355 51.5339L7.73609 39.4484C5.67466 35.9117 4.59016 31.8992 4.59144 27.7885C4.59688 14.9288 15.1646 4.4668 28.1508 4.4668C34.4526 4.46997 40.3676 6.89854 44.8161 11.307C49.2646 15.7155 51.7122 21.5752 51.7099 27.8072C51.7042 40.6661 41.1348 51.1299 28.1505 51.1299H28.1403C24.1977 51.1283 20.3236 50.1489 16.8825 48.2907L4.39355 51.5339Z" fill="black"/>
<path fill-rule="evenodd" clip-rule="evenodd" d="M22.0206 17.7985C21.5794 16.8279 21.1151 16.8083 20.6959 16.7915L19.5676 16.7778C19.175 16.7778 18.5372 16.9237 17.998 17.5071C17.4588 18.0906 15.9375 19.5007 15.9375 22.3687C15.9375 25.2368 18.047 28.0081 18.3409 28.3975C18.6348 28.7869 22.4132 34.86 28.3967 37.1966C33.369 39.1385 34.3808 38.7523 35.4605 38.6552C36.5402 38.5582 38.9433 37.2452 39.4335 35.8839C39.9237 34.5226 39.9241 33.3564 39.7771 33.1126C39.6301 32.8687 39.2376 32.7238 38.6484 32.4321C38.0592 32.1404 35.1656 30.7303 34.6261 30.5356C34.0866 30.3409 33.6943 30.2442 33.3014 30.8276C32.9086 31.4111 31.7818 32.7235 31.4382 33.1126C31.0946 33.5016 30.7517 33.5505 30.1625 33.2591C29.5734 32.9677 27.6778 32.3519 25.4288 30.366C23.6789 28.8208 22.4977 26.9126 22.1538 26.3294C21.8099 25.7463 22.1173 25.4305 22.4125 25.14C22.6767 24.8788 23.001 24.4593 23.2959 24.119C23.5908 23.7788 23.6879 23.5356 23.8838 23.1472C24.0798 22.7587 23.9821 22.4175 23.8348 22.1261C23.6875 21.8347 22.5438 18.9515 22.0206 17.7985Z" fill="#090909"/>
</svg>
